<svg width="24" height="24" viewBox="0 0 24 24" fill="none" xmlns="http://www.w3.org/2000/svg">
<path d="M18.6 19.2H17.8V20H18.6V19.2Z" fill="black"/>
<path d="M17.0001 19.2H16.2001V20H17.0001V19.2Z" fill="black"/>
<path d="M15.4 19.2H14.6V20H15.4V19.2Z" fill="black"/>
<path d="M13.8001 19.2H13.0001V20H13.8001V19.2Z" fill="black"/>
<path d="M19.8001 16H15.3305C15.047 14.267 13.8324 12.8309 12.1705 12.2636C13.0097 11.8715 13.7382 11.2769 14.2905 10.5332H14.6001C16.1465 10.531 17.3982 9.2755 17.396 7.7291C17.3946 6.8126 16.9448 5.95475 16.1917 5.4324C16.0997 2.40915 13.6247 0.00465 10.6001 0H9.00005C5.9754 0.00465 3.50045 2.40915 3.40845 5.4324C2.13785 6.3084 1.818 8.0486 2.694 9.31915C2.97345 9.72445 3.355 10.0488 3.80005 10.2592V12.4C3.80005 12.6209 3.97915 12.8 4.20005 12.8H5.13325C5.35415 12.8 5.53325 12.6209 5.53325 12.4C5.53325 12.1791 5.35415 12 5.13325 12H4.60005V10.5016C4.73245 10.5217 4.86615 10.5322 5.00005 10.5332H5.31125C5.8649 11.2786 6.5956 11.8743 7.43725 12.2664C5.50275 12.934 4.20345 14.7536 4.20005 16.8V23.6C4.20005 23.8209 4.37915 24 4.60005 24H19.8001C20.9041 23.9987 21.7988 23.104 21.8001 22V18C21.7988 16.896 20.9041 16.0013 19.8001 16ZM16.6001 7.7332C16.5988 8.8372 15.7041 9.7319 14.6001 9.7332H14.2001V5.7332H14.6001C15.7041 5.7345 16.5988 6.6292 16.6001 7.7332ZM9.00005 0.8H10.6001C13.0334 0.8037 15.0799 2.6258 15.3649 5.0424C15.2215 5.00125 15.075 4.9717 14.9269 4.954C14.0282 2.9234 12.0206 1.61005 9.80005 1.6C7.5736 1.5906 5.5562 2.91025 4.67285 4.954C4.52485 4.97165 4.3785 5.0012 4.23525 5.0424C4.52025 2.6258 6.5667 0.8037 9.00005 0.8ZM5.40005 9.7332H5.00005C3.8955 9.7332 3.00005 8.83775 3.00005 7.7332C3.00005 6.62865 3.8955 5.7332 5.00005 5.7332H5.40005V9.7332ZM6.6977 10.8593C6.50145 10.6924 6.31895 10.5099 6.15205 10.3136C6.18245 10.2583 6.19895 10.1964 6.20005 10.1332V5.3332C6.20005 5.1123 6.02095 4.9332 5.80005 4.9332H5.57045C6.40005 3.36845 8.029 2.39285 9.80005 2.4C11.5665 2.4082 13.1877 3.3795 14.0281 4.9332H13.8001C13.5792 4.9332 13.4001 5.1123 13.4001 5.3332V10.1332C13.4012 10.1964 13.4177 10.2583 13.4481 10.3136C11.7347 12.3284 8.7124 12.5726 6.6977 10.8593ZM5.00005 23.2V16.8C5.0025 14.5919 6.7919 12.8024 9.00005 12.8H10.6001C12.4417 12.7916 14.0477 14.0498 14.4801 15.84L11.2213 13.6676C11.0376 13.5448 10.7892 13.5942 10.6664 13.7778C10.5865 13.8974 10.5769 14.0506 10.6413 14.1792L11.5529 16H11.0001C10.7792 16 10.6001 16.1791 10.6001 16.4V22C10.6015 22.4342 10.7458 22.8559 11.0105 23.2H5.00005ZM21.0001 22C21.0001 22.6628 20.4628 23.2 19.8001 23.2H12.6001C11.9373 23.2 11.4001 22.6628 11.4001 22V16.8H12.2001C12.421 16.8012 12.6011 16.6231 12.6023 16.4022C12.6026 16.3394 12.5882 16.2774 12.5601 16.2212L12.0337 15.1684L14.3801 16.7328C14.4453 16.7761 14.5218 16.7995 14.6001 16.8H19.8001C20.4628 16.8 21.0001 17.3372 21.0001 18V22Z" fill="black"/>
<path d="M12.6001 6.40002H11.0001V7.20002H12.6001V6.40002Z" fill="black"/>
<path d="M8.60006 6.40002H7.00006V7.20002H8.60006V6.40002Z" fill="black"/>
</svg>
