<svg width="15" height="15" viewBox="0 0 15 15" fill="none" xmlns="http://www.w3.org/2000/svg">
<path d="M3.5149 3.73708C3.71992 3.53206 4.05234 3.53206 4.25736 3.73708L7.44446 6.92419L10.6316 3.7371C10.8366 3.53207 11.169 3.53207 11.374 3.7371C11.5791 3.94212 11.5791 4.27453 11.374 4.47956L8.18692 7.66666L11.374 10.8538C11.579 11.0588 11.579 11.3912 11.374 11.5962C11.169 11.8013 10.8366 11.8013 10.6316 11.5962L7.44445 8.40912L4.25734 11.5962C4.05232 11.8012 3.71991 11.8012 3.51488 11.5962C3.30986 11.3912 3.30986 11.0588 3.51488 10.8537L6.70199 7.66665L3.5149 4.47954C3.30987 4.27452 3.30987 3.94211 3.5149 3.73708Z" fill="#595959"/>
</svg>
